Simulation
nRows=41
nColumns=15
endheader
time  TH_x TH_y TH_z SC_y  SC_z  SC_x  AC_y  AC_z  AC_x  GH_y  GH_z  GH_yy  EL_x  PS_y
0.0  0.000000  0.000000  0.000000  -33.534744483247245  6.04442958127721  18.22955698495872  67.9112181713329  1.9593496710979315  -2.649350779742579  44.99690933444447  48.20151349958617  -55.25583715164583  24.141905679534137  0.000000
0.023  0.000000  0.000000  0.000000  -33.41169339134201  6.786655059786093  19.05284882045425  68.23834410211771  2.8629498869050165  -2.05951192764129  44.926850528175514  49.85358916775115  -55.20893609863662  24.67357103414621  0.000000
0.046  0.000000  0.000000  0.000000  -33.60988016460604  7.498782500258304  19.55694427089379  68.4559313759562  3.289091907989641  -1.4110474840330136  45.02053854328661  51.22771206553915  -55.25151848675052  25.14480694816362  0.000000
0.069  0.000000  0.000000  0.000000  -34.03184872740729  8.014360252966041  19.904151498937104  68.6290919431485  3.314374108632283  -0.8191415520683352  45.22420734801263  52.31158117799419  -55.44146855960089  25.50442966662896  0.000000
0.092  0.000000  0.000000  0.000000  -34.483382935995145  8.387062495525367  20.17571614003163  68.79619414696617  3.10492713931778  -0.3967313868874476  45.46734678907314  53.094302053440884  -55.74181701177435  25.754698002936216  0.000000
0.11499999999999999  0.000000  0.000000  0.000000  -34.894622095385564  8.610111709966164  20.37505057266825  68.9325415799196  2.7967500893989574  -0.07757902182991586  45.72653251276445  53.57819842476117  -56.10112737935882  25.906556493756174  0.000000
0.138  0.000000  0.000000  0.000000  -35.24438493076007  8.73488535849165  20.480710643977332  69.0667727747912  2.4692602897124782  0.15653523294697003  45.98431166114807  53.83970620373816  -56.56521247557948  25.986528160533055  0.000000
0.161  0.000000  0.000000  0.000000  -35.560438296269105  8.807374698597156  20.509265089850956  69.19061737734152  2.159117560126099  0.3644600760815649  46.267877778676564  53.90820803066838  -57.097968213180316  26.00260050490838  0.000000
0.184  0.000000  0.000000  0.000000  -35.82274926050922  8.843584431541501  20.46589153145724  69.29095107056598  1.8655945637171514  0.5501597920193645  46.56877399815581  53.84598047703265  -57.71482637107195  25.98279950994124  0.000000
0.207  0.000000  0.000000  0.000000  -36.04347999018901  8.860500705834212  20.37682479611514  69.37931204237435  1.6043157217729356  0.7103359625468477  46.89665454447237  53.684559671921605  -58.38847552362592  25.93739896865831  0.000000
0.22999999999999998  0.000000  0.000000  0.000000  -36.216370473273784  8.863283619330366  20.249974105180957  69.44108669233871  1.3636719576297307  0.8583440881318165  47.25215551416725  53.455351098107876  -59.11533109426251  25.880627986656116  0.000000
0.253  0.000000  0.000000  0.000000  -36.34630183686333  8.857039556308859  20.101001849112425  69.49073720331648  1.147256241038858  0.9844733038699913  47.63382999886249  53.18378403750733  -59.88550671252982  25.81083735716298  0.000000
0.276  0.000000  0.000000  0.000000  -36.43408521799759  8.846983750183416  19.934812013970927  69.52016016145403  0.9479966075915113  1.1006831072959413  48.042655597760124  52.88011036443273  -60.683818443034994  25.739880267734016  0.000000
0.299  0.000000  0.000000  0.000000  -36.484475702586025  8.833654207493442  19.759623170808336  69.54024536884518  0.7643494032935366  1.2030002211671058  48.47504040624867  52.558805318554455  -61.50495328046969  25.66501396231073  0.000000
0.322  0.000000  0.000000  0.000000  -36.4994808535649  8.819949121882136  19.578143965206248  69.54896246895163  0.5923286728081456  1.2984424378999548  48.93028264718381  52.22238203152243  -62.334689799850196  25.593856502304998  0.000000
0.345  0.000000  0.000000  0.000000  -36.4847270394766  8.805312846315243  19.39512119007224  69.55384415496952  0.4292000120393539  1.3867949519014147  49.40567191334558  51.877228358460734  -63.16803022203025  25.52697938470241  0.000000
0.368  0.000000  0.000000  0.000000  -36.44194454048843  8.790305916698513  19.2118334844132  69.55571898936907  0.2723554664891895  1.4718837584987745  49.8997021521748  51.52381674790755  -63.99418147630077  25.468421781376527  0.000000
0.391  0.000000  0.000000  0.000000  -36.37606232742076  8.774470922865635  19.031507612465035  69.55988260466256  0.1194105687304538  1.554601864964881  50.41017381642649  51.164626398167364  -64.80849478622811  25.419601333045453  0.000000
0.414  0.000000  0.000000  0.000000  -36.28828312464779  8.757336106641464  18.854539619376  69.56752491194645  -0.03158974969410249  1.6372971463799517  50.93526232355273  50.799690505083156  -65.60291164469751  25.38279568794752  0.000000
0.437  0.000000  0.000000  0.000000  -36.18296404464882  8.738683147094505  18.683407948084508  69.58269224336469  -0.18251705726669668  1.7208047751983695  51.472727459241334  50.4303976989188  -66.37362474178515  25.359337559311925  0.000000
0.45999999999999996  0.000000  0.000000  0.000000  -36.06105679117317  8.717728302439792  18.51796219934108  69.60602271136999  -0.33506377526405284  1.8069731254982593  52.020306727183254  50.05708625208612  -67.11445780431201  25.350498380154264  0.000000
0.483  0.000000  0.000000  0.000000  -35.92670740668764  8.694580745150638  18.360238816151504  69.64079870503353  -0.4907590471365014  1.8963595609943968  52.57513443082225  49.681413802881465  -67.82203548744886  25.35713675058047  0.000000
0.506  0.000000  0.000000  0.000000  -35.780955960932786  8.66844572326366  18.20981114066511  69.68696394426533  -0.6513268435783086  1.9906993105339352  53.13415729977698  49.30438149054657  -68.49109713666063  25.379763603036587  0.000000
0.529  0.000000  0.000000  0.000000  -35.6282320317244  8.639895772958006  18.06830432648793  69.74716965570212  -0.8182297125219603  2.090627811219572  53.6935950117808  48.92835436998751  -69.11815008510222  25.418803569037486  0.000000
0.552  0.000000  0.000000  0.000000  -35.47032357157253  8.607983113508904  17.934684792809836  69.82108844782503  -0.9934709159271006  2.1979356620115347  54.24905121656213  48.55567057624  -69.69816232226184  25.47407050147986  0.000000
0.575  0.000000  0.000000  0.000000  -35.31128316295768  8.575061728204465  17.80981386813292  69.91008304457085  -1.1776566055606104  2.3145995583802477  54.795976304561954  48.18841269388467  -70.2271016040597  25.545025905994095  0.000000
0.598  0.000000  0.000000  0.000000  -35.15071627304496  8.542949465469338  17.69244153441136  70.0125620478871  -1.3697527571966883  2.4426906453060115  55.3318432934466  47.826756865616936  -70.70263413592593  25.63119376337436  0.000000
0.621  0.000000  0.000000  0.000000  -34.99218521360111  8.509741651223283  17.583023299212158  70.1305412660276  -1.568502367301099  2.5814285166602273  55.85622320079228  47.47291479870015  -71.12927223008208  25.732066168592844  0.000000
0.644  0.000000  0.000000  0.000000  -34.83456711058779  8.474095894608995  17.481235558948363  70.26265111253333  -1.7725284188094395  2.729394733404687  56.37044017384836  47.12675856035229  -71.51071499157959  25.8476943268846  0.000000
0.667  0.000000  0.000000  0.000000  -34.67895187256462  8.437035889294933  17.38885742673999  70.40875383080696  -1.9799325125030172  2.8851419756226364  56.87555433577985  46.787962062501904  -71.85099659751484  25.97740104691625  0.000000
0.69  0.000000  0.000000  0.000000  -34.523969307483476  8.398191171229051  17.305000711498785  70.56620762814474  -2.1892178555644715  3.0476914300723017  57.3717629479334  46.45626377372435  -72.15295908865694  26.119973588954274  0.000000
0.713  0.000000  0.000000  0.000000  -34.37205780544035  8.358264713708957  17.23026524296622  70.73476608827518  -2.3986665253328145  3.215672747134347  57.8584960305724  46.13252075163363  -72.4199611473578  26.274191237010275  0.000000
0.736  0.000000  0.000000  0.000000  -34.222839511058496  8.317246025957095  17.162968860324614  70.91154797351244  -2.6062753147978657  3.3884587000745947  58.33464270196013  45.816639443740804  -72.65419646092815  26.43855647779834  0.000000
0.759  0.000000  0.000000  0.000000  -34.07882557121346  8.276058583359804  17.102315484611587  71.09602663671217  -2.809373413195212  3.5655219927165422  58.7983526057799  45.509124346313975  -72.85824890371075  26.61167528078052  0.000000
0.782  0.000000  0.000000  0.000000  -33.93932322893044  8.234606218965538  17.047055622307333  71.28563793084406  -3.007299105315432  3.7460427133486176  59.24912858059921  45.21009402315749  -73.03411899299822  26.791580257465757  0.000000
0.8049999999999999  0.000000  0.000000  0.000000  -33.80617362998206  8.193465583921135  16.99876545706365  71.47996429702413  -3.2009652726312736  3.9282510685768877  59.68720002190088  44.9207748913684  -73.18523086527232  26.976496079422432  0.000000
0.828  0.000000  0.000000  0.000000  -33.67798558206135  8.152556274135588  16.95680295019128  71.67609955814757  -3.390544219437795  4.110925302783714  60.11285262795191  44.641129266527905  -73.31448696763978  27.164870626337343  0.000000
0.851  0.000000  0.000000  0.000000  -33.55658868942506  8.112788816877975  16.921652581978787  71.8734945631164  -3.575380275171305  4.292967952827023  60.52528167888555  44.37190580705227  -73.42466008750337  27.354977931606225  0.000000
0.874  0.000000  0.000000  0.000000  -33.44111409796462  8.074121127619772  16.892262502436136  72.06937027815482  -3.754591057768623  4.473112752867297  60.923630708871606  44.11322539313876  -73.5178412829806  27.54499979879231  0.000000
0.897  0.000000  0.000000  0.000000  -33.3338219186909  8.03722808141472  16.869148162389955  72.26301934083287  -3.9270359125380354  4.649922832283807  61.30618820388463  43.86599104235843  -73.59591383910117  27.73321628723084  0.000000
0.9199999999999999  0.000000  0.000000  0.000000  -33.234276616601754  8.00165076484821  16.85139367455725  72.45174876900198  -4.091332804281217  4.821474319511457  61.67109205485773  43.6306386720161  -73.66004267414286  27.917775387801026  0.000000
